<svg width="336" height="336" viewBox="0 0 336 336" fill="none" xmlns="http://www.w3.org/2000/svg">
<g clip-path="url(#clip0_0_17)">
<path d="M336 0H0V336H336V0Z" fill="#B10202"/>
<path d="M273 31.5H63C45.603 31.5 31.5 45.603 31.5 63V273C31.5 290.397 45.603 304.5 63 304.5H273C290.397 304.5 304.5 290.397 304.5 273V63C304.5 45.603 290.397 31.5 273 31.5Z" stroke="#F8F7F3" stroke-width="7.875"/>
<path d="M273 44.625H63C52.8518 44.625 44.625 52.8518 44.625 63V273C44.625 283.148 52.8518 291.375 63 291.375H273C283.148 291.375 291.375 283.148 291.375 273V63C291.375 52.8518 283.148 44.625 273 44.625Z" stroke="#F8F7F3" stroke-width="2.625"/>
<path d="M92.2328 87.9801H95.0583V96.6586C95.0583 97.6331 94.8255 98.4857 94.3601 99.2165C93.8989 99.9474 93.2529 100.517 92.4221 100.926C91.5912 101.331 90.6233 101.533 89.5183 101.533C88.4091 101.533 87.439 101.331 86.6081 100.926C85.7772 100.517 85.1312 99.9474 84.6701 99.2165C84.209 98.4857 83.9784 97.6331 83.9784 96.6586V87.9801H86.8039V96.4172C86.8039 96.9262 86.9148 97.3786 87.1366 97.7745C87.3629 98.1703 87.6804 98.4814 88.0893 98.7076C88.4982 98.9338 88.9746 99.0469 89.5183 99.0469C90.0665 99.0469 90.5428 98.9338 90.9474 98.7076C91.3563 98.4814 91.6717 98.1703 91.8935 97.7745C92.1197 97.3786 92.2328 96.9262 92.2328 96.4172V87.9801ZM108.561 87.9801V101.344H106.12L100.306 92.9327H100.208V101.344H97.3829V87.9801H99.8624L105.631 96.3846H105.748V87.9801H108.561ZM110.895 101.344V87.9801H113.72V99.0142H119.45V101.344H110.895ZM122.299 87.9801L125.529 98.1333H125.653L128.89 87.9801H132.022L127.415 101.344H123.774L119.161 87.9801H122.299ZM137.883 101.344V87.9801H146.888V90.3096H140.709V93.4939H146.425V95.8234H140.709V99.0142H146.914V101.344H137.883ZM160.925 92.6587H158.067C158.015 92.2889 157.909 91.9605 157.748 91.6734C157.587 91.3819 157.38 91.134 157.128 90.9295C156.875 90.7251 156.584 90.5684 156.253 90.4597C155.927 90.3509 155.573 90.2966 155.19 90.2966C154.498 90.2966 153.896 90.4684 153.382 90.8121C152.869 91.1514 152.471 91.6473 152.188 92.2998C151.905 92.948 151.764 93.7354 151.764 94.6619C151.764 95.6146 151.905 96.415 152.188 97.0632C152.475 97.7114 152.875 98.2008 153.389 98.5314C153.902 98.862 154.496 99.0273 155.17 99.0273C155.549 99.0273 155.899 98.9773 156.221 98.8772C156.547 98.7772 156.836 98.6314 157.089 98.44C157.341 98.2443 157.55 98.0072 157.715 97.7288C157.885 97.4504 158.002 97.1328 158.067 96.7761L160.925 96.7892C160.851 97.4025 160.667 97.9941 160.371 98.564C160.079 99.1295 159.686 99.6363 159.19 100.084C158.698 100.528 158.111 100.88 157.428 101.141C156.749 101.398 155.981 101.526 155.124 101.526C153.933 101.526 152.867 101.257 151.927 100.717C150.992 100.178 150.252 99.3971 149.709 98.3748C149.169 97.3525 148.899 96.1149 148.899 94.6619C148.899 93.2046 149.173 91.9648 149.722 90.9426C150.27 89.9203 151.014 89.1416 151.953 88.6065C152.893 88.0671 153.95 87.7974 155.124 87.7974C155.899 87.7974 156.617 87.9062 157.278 88.1237C157.943 88.3412 158.533 88.6587 159.046 89.0763C159.559 89.4896 159.977 89.9964 160.299 90.5967C160.625 91.197 160.834 91.8844 160.925 92.6587ZM175.232 94.6619C175.232 96.1192 174.956 97.359 174.403 98.3813C173.855 99.4036 173.107 100.184 172.159 100.724C171.215 101.259 170.153 101.526 168.974 101.526C167.787 101.526 166.721 101.257 165.777 100.717C164.833 100.178 164.087 99.3971 163.539 98.3748C162.991 97.3525 162.717 96.1149 162.717 94.6619C162.717 93.2046 162.991 91.9648 163.539 90.9426C164.087 89.9203 164.833 89.1416 165.777 88.6065C166.721 88.0671 167.787 87.7974 168.974 87.7974C170.153 87.7974 171.215 88.0671 172.159 88.6065C173.107 89.1416 173.855 89.9203 174.403 90.9426C174.956 91.9648 175.232 93.2046 175.232 94.6619ZM172.367 94.6619C172.367 93.718 172.226 92.9219 171.943 92.2737C171.665 91.6255 171.271 91.134 170.762 90.799C170.253 90.464 169.657 90.2966 168.974 90.2966C168.291 90.2966 167.695 90.464 167.186 90.799C166.677 91.134 166.281 91.6255 165.999 92.2737C165.72 92.9219 165.581 93.718 165.581 94.6619C165.581 95.6059 165.72 96.402 165.999 97.0502C166.281 97.6983 166.677 98.1899 167.186 98.5249C167.695 98.8598 168.291 99.0273 168.974 99.0273C169.657 99.0273 170.253 98.8598 170.762 98.5249C171.271 98.1899 171.665 97.6983 171.943 97.0502C172.226 96.402 172.367 95.6059 172.367 94.6619ZM188.503 87.9801V101.344H186.062L180.248 92.9327H180.15V101.344H177.325V87.9801H179.804L185.573 96.3846H185.69V87.9801H188.503ZM203.117 94.6619C203.117 96.1192 202.841 97.359 202.289 98.3813C201.741 99.4036 200.992 100.184 200.044 100.724C199.1 101.259 198.039 101.526 196.86 101.526C195.672 101.526 194.606 101.257 193.662 100.717C192.718 100.178 191.972 99.3971 191.424 98.3748C190.876 97.3525 190.602 96.1149 190.602 94.6619C190.602 93.2046 190.876 91.9648 191.424 90.9426C191.972 89.9203 192.718 89.1416 193.662 88.6065C194.606 88.0671 195.672 87.7974 196.86 87.7974C198.039 87.7974 199.1 88.0671 200.044 88.6065C200.992 89.1416 201.741 89.9203 202.289 90.9426C202.841 91.9648 203.117 93.2046 203.117 94.6619ZM200.253 94.6619C200.253 93.718 200.111 92.9219 199.829 92.2737C199.55 91.6255 199.157 91.134 198.648 90.799C198.139 90.464 197.543 90.2966 196.86 90.2966C196.177 90.2966 195.581 90.464 195.072 90.799C194.563 91.134 194.167 91.6255 193.884 92.2737C193.606 92.9219 193.467 93.718 193.467 94.6619C193.467 95.6059 193.606 96.402 193.884 97.0502C194.167 97.6983 194.563 98.1899 195.072 98.5249C195.581 98.8598 196.177 99.0273 196.86 99.0273C197.543 99.0273 198.139 98.8598 198.648 98.5249C199.157 98.1899 199.55 97.6983 199.829 97.0502C200.111 96.402 200.253 95.6059 200.253 94.6619ZM205.21 87.9801H208.695L212.375 96.9588H212.532L216.212 87.9801H219.696V101.344H216.956V92.6456H216.845L213.386 101.278H211.52L208.062 92.613H207.951V101.344H205.21V87.9801ZM224.85 87.9801V101.344H222.024V87.9801H224.85ZM238.965 92.6587H236.107C236.055 92.2889 235.948 91.9605 235.788 91.6734C235.627 91.3819 235.42 91.134 235.168 90.9295C234.915 90.7251 234.624 90.5684 234.293 90.4597C233.967 90.3509 233.612 90.2966 233.23 90.2966C232.538 90.2966 231.935 90.4684 231.422 90.8121C230.909 91.1514 230.511 91.6473 230.228 92.2998C229.945 92.948 229.804 93.7354 229.804 94.6619C229.804 95.6146 229.945 96.415 230.228 97.0632C230.515 97.7114 230.915 98.2008 231.429 98.5314C231.942 98.862 232.536 99.0273 233.21 99.0273C233.589 99.0273 233.939 98.9773 234.261 98.8772C234.587 98.7772 234.876 98.6314 235.128 98.44C235.381 98.2443 235.59 98.0072 235.755 97.7288C235.925 97.4504 236.042 97.1328 236.107 96.7761L238.965 96.7892C238.891 97.4025 238.706 97.9941 238.411 98.564C238.119 99.1295 237.726 99.6363 237.23 100.084C236.738 100.528 236.151 100.88 235.468 101.141C234.789 101.398 234.021 101.526 233.164 101.526C231.972 101.526 230.907 101.257 229.967 100.717C229.032 100.178 228.292 99.3971 227.748 98.3748C227.209 97.3525 226.939 96.1149 226.939 94.6619C226.939 93.2046 227.213 91.9648 227.762 90.9426C228.31 89.9203 229.054 89.1416 229.993 88.6065C230.933 88.0671 231.99 87.7974 233.164 87.7974C233.939 87.7974 234.656 87.9062 235.318 88.1237C235.983 88.3412 236.573 88.6587 237.086 89.0763C237.599 89.4896 238.017 89.9964 238.339 90.5967C238.665 91.197 238.874 91.8844 238.965 92.6587ZM248.241 91.8235C248.189 91.2971 247.965 90.8882 247.569 90.5967C247.173 90.3053 246.636 90.1595 245.957 90.1595C245.496 90.1595 245.107 90.2248 244.789 90.3553C244.471 90.4814 244.228 90.6576 244.058 90.8838C243.893 91.11 243.81 91.3667 243.81 91.6538C243.802 91.8931 243.852 92.1019 243.96 92.2802C244.073 92.4586 244.228 92.613 244.424 92.7435C244.619 92.8697 244.846 92.9806 245.102 93.0763C245.359 93.1677 245.633 93.246 245.924 93.3112L247.125 93.5983C247.708 93.7288 248.243 93.9028 248.73 94.1203C249.218 94.3378 249.639 94.6054 249.996 94.9229C250.353 95.2405 250.629 95.6146 250.825 96.0453C251.025 96.4759 251.127 96.9697 251.132 97.5265C251.127 98.3443 250.918 99.0534 250.505 99.6537C250.096 100.25 249.505 100.713 248.73 101.044C247.96 101.37 247.032 101.533 245.944 101.533C244.865 101.533 243.926 101.368 243.125 101.037C242.329 100.706 241.707 100.217 241.259 99.5689C240.815 98.9164 240.582 98.1094 240.561 97.148H243.295C243.325 97.5961 243.454 97.9702 243.68 98.2704C243.91 98.5662 244.217 98.7902 244.6 98.9425C244.987 99.0904 245.424 99.1643 245.911 99.1643C246.39 99.1643 246.805 99.0947 247.158 98.9555C247.514 98.8163 247.791 98.6227 247.986 98.3748C248.182 98.1268 248.28 97.8419 248.28 97.52C248.28 97.2198 248.191 96.9675 248.013 96.7631C247.839 96.5586 247.582 96.3846 247.243 96.241C246.908 96.0975 246.496 95.967 246.009 95.8495L244.554 95.4841C243.427 95.21 242.538 94.7816 241.885 94.1986C241.233 93.6157 240.909 92.8305 240.913 91.843C240.909 91.0339 241.124 90.327 241.559 89.7223C241.998 89.1177 242.601 88.6457 243.367 88.3064C244.132 87.9671 245.002 87.7974 245.977 87.7974C246.968 87.7974 247.834 87.9671 248.574 88.3064C249.318 88.6457 249.896 89.1177 250.309 89.7223C250.723 90.327 250.936 91.0274 250.949 91.8235H248.241Z" fill="#F8F7F3"/>
<path d="M115.625 121.58H117.643V127.778C117.643 128.475 117.477 129.084 117.145 129.606C116.815 130.128 116.354 130.535 115.76 130.827C115.167 131.116 114.475 131.26 113.686 131.26C112.894 131.26 112.201 131.116 111.607 130.827C111.014 130.535 110.553 130.128 110.223 129.606C109.894 129.084 109.729 128.475 109.729 127.778V121.58H111.747V127.606C111.747 127.97 111.826 128.293 111.985 128.576C112.147 128.858 112.373 129.08 112.665 129.242C112.958 129.404 113.298 129.484 113.686 129.484C114.078 129.484 114.418 129.404 114.707 129.242C114.999 129.08 115.224 128.858 115.383 128.576C115.544 128.293 115.625 127.97 115.625 127.606V121.58ZM127.288 121.58V131.125H125.545L121.392 125.117H121.322V131.125H119.304V121.58H121.075L125.195 127.583H125.279V121.58H127.288ZM132.339 131.125H128.955V121.58H132.367C133.327 121.58 134.154 121.771 134.847 122.153C135.539 122.532 136.072 123.077 136.445 123.789C136.821 124.5 137.009 125.352 137.009 126.343C137.009 127.337 136.821 128.192 136.445 128.906C136.072 129.621 135.536 130.17 134.837 130.552C134.141 130.934 133.308 131.125 132.339 131.125ZM130.973 129.396H132.255C132.852 129.396 133.353 129.29 133.761 129.079C134.171 128.864 134.478 128.534 134.683 128.086C134.892 127.636 134.996 127.055 134.996 126.343C134.996 125.638 134.892 125.061 134.683 124.614C134.478 124.166 134.172 123.837 133.765 123.626C133.358 123.414 132.856 123.309 132.26 123.309H130.973V129.396ZM138.504 131.125V121.58H144.936V123.243H140.522V125.518H144.605V127.182H140.522V129.461H144.955V131.125H138.504ZM146.541 131.125V121.58H150.307C151.027 121.58 151.643 121.708 152.152 121.966C152.665 122.221 153.055 122.583 153.322 123.052C153.593 123.518 153.728 124.067 153.728 124.698C153.728 125.332 153.591 125.877 153.318 126.334C153.044 126.787 152.648 127.135 152.129 127.378C151.613 127.62 150.989 127.741 150.255 127.741H147.734V126.119H149.929C150.314 126.119 150.634 126.066 150.889 125.961C151.144 125.855 151.334 125.697 151.458 125.485C151.585 125.274 151.649 125.011 151.649 124.698C151.649 124.381 151.585 124.114 151.458 123.896C151.334 123.678 151.142 123.514 150.885 123.402C150.63 123.287 150.308 123.229 149.92 123.229H148.559V131.125H146.541ZM151.696 126.781L154.068 131.125H151.84L149.519 126.781H151.696ZM161.483 124.665C161.418 124.438 161.326 124.238 161.208 124.064C161.09 123.887 160.946 123.738 160.775 123.616C160.607 123.492 160.414 123.397 160.197 123.332C159.983 123.267 159.745 123.234 159.484 123.234C158.996 123.234 158.567 123.355 158.197 123.598C157.831 123.84 157.545 124.193 157.34 124.656C157.135 125.116 157.032 125.678 157.032 126.343C157.032 127.008 157.133 127.573 157.335 128.04C157.537 128.506 157.823 128.861 158.193 129.107C158.563 129.349 158.999 129.47 159.503 129.47C159.959 129.47 160.349 129.39 160.672 129.228C160.999 129.063 161.247 128.832 161.418 128.534C161.592 128.235 161.679 127.883 161.679 127.476L162.089 127.536H159.628V126.017H163.623V127.219C163.623 128.058 163.446 128.779 163.091 129.382C162.737 129.982 162.249 130.445 161.628 130.771C161.006 131.094 160.295 131.256 159.493 131.256C158.598 131.256 157.812 131.058 157.135 130.664C156.457 130.266 155.929 129.702 155.55 128.972C155.174 128.238 154.986 127.368 154.986 126.362C154.986 125.588 155.098 124.898 155.322 124.292C155.549 123.683 155.865 123.167 156.273 122.745C156.68 122.322 157.153 122.001 157.694 121.78C158.235 121.559 158.82 121.449 159.451 121.449C159.992 121.449 160.495 121.528 160.961 121.687C161.427 121.842 161.841 122.063 162.201 122.349C162.565 122.634 162.861 122.975 163.091 123.369C163.321 123.761 163.469 124.193 163.534 124.665H161.483ZM165.139 131.125V121.58H168.905C169.626 121.58 170.241 121.708 170.75 121.966C171.263 122.221 171.653 122.583 171.92 123.052C172.191 123.518 172.326 124.067 172.326 124.698C172.326 125.332 172.189 125.877 171.916 126.334C171.642 126.787 171.246 127.135 170.727 127.378C170.211 127.62 169.587 127.741 168.853 127.741H166.332V126.119H168.527C168.912 126.119 169.232 126.066 169.487 125.961C169.742 125.855 169.932 125.697 170.056 125.485C170.183 125.274 170.247 125.011 170.247 124.698C170.247 124.381 170.183 124.114 170.056 123.896C169.932 123.678 169.74 123.514 169.483 123.402C169.228 123.287 168.906 123.229 168.518 123.229H167.157V131.125H165.139ZM170.294 126.781L172.666 131.125H170.438L168.117 126.781H170.294ZM175.397 131.125H173.235L176.53 121.58H179.131L182.421 131.125H180.259L177.867 123.761H177.793L175.397 131.125ZM175.262 127.373H180.37V128.948H175.262V127.373ZM186.954 131.125H183.57V121.58H186.982C187.942 121.58 188.768 121.771 189.461 122.153C190.154 122.532 190.687 123.077 191.06 123.789C191.436 124.5 191.624 125.352 191.624 126.343C191.624 127.337 191.436 128.192 191.06 128.906C190.687 129.621 190.151 130.17 189.452 130.552C188.756 130.934 187.923 131.125 186.954 131.125ZM185.588 129.396H186.87C187.467 129.396 187.968 129.29 188.375 129.079C188.786 128.864 189.093 128.534 189.298 128.086C189.506 127.636 189.611 127.055 189.611 126.343C189.611 125.638 189.506 125.061 189.298 124.614C189.093 124.166 188.787 123.837 188.38 123.626C187.973 123.414 187.471 123.309 186.875 123.309H185.588V129.396ZM199.015 121.58H201.033V127.778C201.033 128.475 200.867 129.084 200.534 129.606C200.205 130.128 199.744 130.535 199.15 130.827C198.557 131.116 197.865 131.26 197.076 131.26C196.284 131.26 195.591 131.116 194.997 130.827C194.404 130.535 193.942 130.128 193.613 129.606C193.284 129.084 193.119 128.475 193.119 127.778V121.58H195.137V127.606C195.137 127.97 195.216 128.293 195.375 128.576C195.536 128.858 195.763 129.08 196.055 129.242C196.347 129.404 196.688 129.484 197.076 129.484C197.468 129.484 197.808 129.404 198.097 129.242C198.389 129.08 198.614 128.858 198.773 128.576C198.934 128.293 199.015 127.97 199.015 127.606V121.58ZM204.339 131.125H202.176L205.471 121.58H208.072L211.363 131.125H209.2L206.809 123.761H206.735L204.339 131.125ZM204.204 127.373H209.312V128.948H204.204V127.373ZM210.982 123.243V121.58H218.821V123.243H215.899V131.125H213.904V123.243H210.982ZM220.112 131.125V121.58H226.544V123.243H222.131V125.518H226.213V127.182H222.131V129.461H226.563V131.125H220.112Z" fill="#F8F7F3"/>
<path d="M91.875 157.5H244.125" stroke="#F8F7F3" stroke-width="1.96875"/>
<path d="M93.3297 253.551L77.9104 206.86C77.3329 205.185 76.8709 203.655 76.5244 202.269C76.2357 200.883 76.0913 199.728 76.0913 198.804C74.994 198.862 74.0123 198.919 73.146 198.977C72.3375 198.977 71.5579 199.006 70.8072 199.064V192.394H96.3615V198.111C94.2248 198.053 92.6367 198.457 91.5972 199.324C90.6154 200.19 90.4999 201.951 91.2507 204.608C92.1169 207.9 92.9832 211.191 93.8494 214.483C94.7157 217.775 95.5819 221.067 96.4482 224.358C96.9679 226.322 97.4299 228.17 97.8342 229.902C98.2962 231.635 98.787 233.887 99.3068 236.659H99.3934C99.6244 235.851 99.9709 234.609 100.433 232.934C100.895 231.259 101.386 229.469 101.906 227.564C102.483 225.6 102.974 223.839 103.378 222.279C103.84 220.662 104.158 219.536 104.331 218.901C105.255 215.956 106.15 213.01 107.016 210.065C107.94 207.12 108.836 204.175 109.702 201.229C110.626 198.284 111.521 195.339 112.387 192.394H120.183C120.992 195.05 121.8 197.707 122.609 200.363C123.475 203.02 124.313 205.676 125.121 208.333C125.93 210.989 126.738 213.646 127.547 216.302C128.413 218.959 129.25 221.615 130.059 224.272C130.694 226.235 131.243 228.285 131.705 230.422C132.224 232.501 132.715 234.609 133.177 236.746H133.264C133.784 234.898 134.303 232.992 134.823 231.028C135.401 229.007 135.978 226.928 136.556 224.791C136.96 223.29 137.364 221.788 137.768 220.287C138.173 218.785 138.577 217.284 138.981 215.782C139.385 214.223 139.79 212.693 140.194 211.191C140.598 209.69 141.002 208.188 141.407 206.687C141.753 205.301 142.215 203.886 142.793 202.442C143.37 200.941 144.092 199.728 144.958 198.804C144.034 198.862 142.85 198.919 141.407 198.977C139.963 198.977 138.923 199.006 138.288 199.064V192.394H157.779V198.111C156.508 198.169 155.295 198.515 154.14 199.15C153.043 199.728 152.033 200.681 151.109 202.009C150.185 203.337 149.347 205.128 148.596 207.38C146.286 215.061 143.948 222.741 141.58 230.422C139.212 238.103 136.844 245.812 134.477 253.551H126.767L116.545 222.539C115.794 220.287 115.159 218.092 114.639 215.956C114.177 213.761 113.715 211.682 113.253 209.719C112.965 211.682 112.618 213.588 112.214 215.436C111.81 217.226 111.319 219.103 110.741 221.067L100.866 253.551H93.3297ZM161.991 247.314C163.319 247.256 164.416 247.083 165.283 246.794C166.207 246.505 166.9 245.841 167.362 244.802C167.881 243.762 168.141 242.088 168.141 239.778V206.6C168.141 205.041 168.17 203.539 168.228 202.096C168.343 200.652 168.43 199.555 168.488 198.804C167.564 198.862 166.409 198.919 165.023 198.977C163.637 198.977 162.626 199.006 161.991 199.064V192.394C166.091 192.336 170.191 192.307 174.292 192.307C178.392 192.307 182.492 192.278 186.592 192.22C191.674 192.163 196.092 192.827 199.846 194.213C203.657 195.599 206.574 197.736 208.595 200.623C210.674 203.511 211.656 207.264 211.54 211.884C211.483 214.194 210.934 216.475 209.894 218.728C208.855 220.922 207.325 222.943 205.303 224.791C203.282 226.582 200.741 228.054 197.68 229.209C194.62 230.364 191.039 231 186.939 231.115C185.668 231.173 184.542 231.202 183.56 231.202C182.636 231.202 181.684 231.173 180.702 231.115V238.738C180.702 240.355 180.673 241.885 180.615 243.329C180.557 244.773 180.471 245.87 180.355 246.621C180.991 246.563 181.799 246.534 182.781 246.534C183.763 246.477 184.715 246.448 185.639 246.448C186.621 246.39 187.314 246.361 187.718 246.361V253.031H161.991V247.314ZM180.702 224.618C181.337 224.676 181.972 224.734 182.608 224.791C183.243 224.849 183.907 224.878 184.6 224.878C187.776 224.878 190.346 224.358 192.31 223.319C194.331 222.222 195.803 220.662 196.727 218.641C197.651 216.562 198.113 214.05 198.113 211.105C198.113 208.217 197.709 205.907 196.901 204.175C196.15 202.442 195.168 201.172 193.955 200.363C192.743 199.497 191.472 198.948 190.144 198.717C188.816 198.429 187.603 198.284 186.506 198.284C185.293 198.284 184.253 198.429 183.387 198.717C182.521 199.006 181.857 199.641 181.395 200.623C180.933 201.605 180.702 203.106 180.702 205.128V224.618ZM252.312 211.798C251.792 208.564 250.868 205.878 249.54 203.742C248.212 201.547 246.508 199.901 244.429 198.804C242.408 197.707 240.04 197.187 237.326 197.245C234.843 197.245 232.648 197.938 230.743 199.324C228.895 200.71 227.971 202.5 227.971 204.694C227.971 206.485 228.461 208.044 229.443 209.372C230.483 210.7 232.042 211.942 234.121 213.097C236.2 214.252 238.828 215.494 242.004 216.822C244.198 217.688 246.451 218.699 248.761 219.854C251.071 221.009 253.207 222.395 255.171 224.012C257.134 225.571 258.723 227.419 259.935 229.556C261.148 231.635 261.754 234.089 261.754 236.919C261.754 240.326 260.83 243.358 258.982 246.015C257.134 248.671 254.536 250.75 251.186 252.252C247.894 253.695 244.025 254.417 239.578 254.417C237.268 254.417 234.756 254.042 232.042 253.291C229.385 252.598 226.873 251.559 224.506 250.173L224.765 253.811H218.095V233.541H223.813C224.621 238.392 226.469 242.059 229.357 244.542C232.302 246.967 235.796 248.18 239.838 248.18C241.917 248.18 243.736 247.805 245.296 247.054C246.855 246.303 248.068 245.322 248.934 244.109C249.8 242.838 250.233 241.481 250.233 240.037C250.233 238.016 249.511 236.341 248.068 235.013C246.682 233.685 244.92 232.559 242.783 231.635C240.704 230.711 238.568 229.816 236.373 228.949C233.601 227.794 231.002 226.582 228.577 225.311C226.209 223.983 224.13 222.481 222.34 220.807C220.55 219.132 219.164 217.226 218.182 215.089C217.2 212.895 216.709 210.383 216.709 207.553C216.709 205.763 217.056 203.915 217.749 202.009C218.442 200.046 219.568 198.255 221.127 196.638C222.686 194.964 224.765 193.606 227.364 192.567C229.963 191.527 233.168 191.008 236.98 191.008C239.29 191.008 241.802 191.354 244.516 192.047C247.288 192.74 249.656 193.78 251.619 195.166L251.273 191.614H258.03V211.798H252.312Z" fill="#F8F7F3"/>
</g>
<defs>
<clipPath id="clip0_0_17">
<rect width="336" height="336" fill="white"/>
</clipPath>
</defs>
</svg>
