<svg width="16" height="16" viewBox="0 0 16 16" fill="none" xmlns="http://www.w3.org/2000/svg">
<g clip-path="url(#clip0_1_9)">
<path d="M16 0H0V16H16V0Z" fill="#B10202"/>
<path d="M12.5 1.5H3.5C2.39543 1.5 1.5 2.39543 1.5 3.5V12.5C1.5 13.6046 2.39543 14.5 3.5 14.5H12.5C13.6046 14.5 14.5 13.6046 14.5 12.5V3.5C14.5 2.39543 13.6046 1.5 12.5 1.5Z" stroke="#F8F7F3"/>
<path d="M5.90188 11.56L4.12188 6.17C4.05521 5.97667 4.00188 5.8 3.96188 5.64C3.92854 5.48 3.91188 5.34667 3.91188 5.24C3.78521 5.24667 3.67188 5.25333 3.57188 5.26C3.47854 5.26 3.38854 5.26333 3.30188 5.27V4.5H6.25188V5.16C6.00521 5.15333 5.82188 5.2 5.70188 5.3C5.58854 5.4 5.57521 5.60333 5.66188 5.91C5.76188 6.29 5.86188 6.67 5.96188 7.05C6.06188 7.43 6.16188 7.81 6.26188 8.19C6.32188 8.41667 6.37521 8.63 6.42188 8.83C6.47521 9.03 6.53188 9.29 6.59188 9.61H6.60188C6.62854 9.51667 6.66854 9.37333 6.72188 9.18C6.77521 8.98667 6.83188 8.78 6.89188 8.56C6.95854 8.33333 7.01521 8.13 7.06188 7.95C7.11521 7.76333 7.15188 7.63333 7.17188 7.56C7.27854 7.22 7.38188 6.88 7.48188 6.54C7.58854 6.2 7.69188 5.86 7.79188 5.52C7.89854 5.18 8.00188 4.84 8.10188 4.5H9.00188C9.09521 4.80667 9.18854 5.11333 9.28188 5.42C9.38188 5.72667 9.47854 6.03333 9.57188 6.34C9.66521 6.64667 9.75854 6.95333 9.85188 7.26C9.95188 7.56667 10.0485 7.87333 10.1419 8.18C10.2152 8.40667 10.2785 8.64333 10.3319 8.89C10.3919 9.13 10.4485 9.37333 10.5019 9.62H10.5119C10.5719 9.40667 10.6319 9.18667 10.6919 8.96C10.7585 8.72667 10.8252 8.48667 10.8919 8.24C10.9385 8.06667 10.9852 7.89333 11.0319 7.72C11.0785 7.54667 11.1252 7.37333 11.1719 7.2C11.2185 7.02 11.2652 6.84333 11.3119 6.67C11.3585 6.49667 11.4052 6.32333 11.4519 6.15C11.4919 5.99 11.5452 5.82667 11.6119 5.66C11.6785 5.48667 11.7619 5.34667 11.8619 5.24C11.7552 5.24667 11.6185 5.25333 11.4519 5.26C11.2852 5.26 11.1652 5.26333 11.0919 5.27V4.5H13.3419V5.16C13.1952 5.16667 13.0552 5.20667 12.9219 5.28C12.7952 5.34667 12.6785 5.45667 12.5719 5.61C12.4652 5.76333 12.3685 5.97 12.2819 6.23C12.0152 7.11667 11.7452 8.00333 11.4719 8.89C11.1985 9.77667 10.9252 10.6667 10.6519 11.56H9.76188L8.58188 7.98C8.49521 7.72 8.42188 7.46667 8.36188 7.22C8.30854 6.96667 8.25521 6.72667 8.20188 6.5C8.16854 6.72667 8.12854 6.94667 8.08188 7.16C8.03521 7.36667 7.97854 7.58333 7.91188 7.81L6.77188 11.56H5.90188Z" fill="#F8F7F3"/>
</g>
<defs>
<clipPath id="clip0_1_9">
<rect width="16" height="16" fill="white"/>
</clipPath>
</defs>
</svg>
